<?xml version="1.0" encoding="utf-8"?>
<!-- Generator: Adobe Illustrator 16.0.0, SVG Export Plug-In . SVG Version: 6.00 Build 0)  -->
<!DOCTYPE svg PUBLIC "-//W3C//DTD SVG 1.1//EN" "http://www.w3.org/Graphics/SVG/1.1/DTD/svg11.dtd">
<svg version="1.1" id="Layer_1" xmlns="http://www.w3.org/2000/svg" xmlns:xlink="http://www.w3.org/1999/xlink" x="0px" y="0px"
	 width="32.41px" height="84.26px" viewBox="0 0 32.41 84.26" enable-background="new 0 0 32.41 84.26" xml:space="preserve">
<g>
	<path fill-rule="evenodd" clip-rule="evenodd" fill="#FFFFFF" d="M32.41,9.678L19.994,70.803L3.95,84.26
		C0.605,79.965-0.84,74.066,0.492,67.596L14.211,0L32.41,9.678z"/>
	<path fill="#5B5B5A" d="M32.41,9.678L19.994,70.803L3.95,84.26C0.605,79.965-0.84,74.066,0.492,67.596L14.211,0L32.41,9.678z
		 M19.115,70.26l12.189-60.039L14.92,1.488L1.456,67.797c-0.624,3.035-0.595,5.926-0.057,8.59c0.482,2.375,1.417,4.551,2.721,6.412
		L19.115,70.26z"/>
	<path fill-rule="evenodd" clip-rule="evenodd" fill="#5B5B5A" d="M16.026,45.895c2.041,0,3.742-1.689,3.742-3.75
		c0-2.09-1.701-3.779-3.742-3.779c-2.069,0-3.742,1.689-3.742,3.779C12.284,44.205,13.957,45.895,16.026,45.895L16.026,45.895z"/>
</g>
</svg>
