<?xml version="1.0" encoding="utf-8"?>
<!-- Generator: Adobe Illustrator 16.0.0, SVG Export Plug-In . SVG Version: 6.00 Build 0)  -->
<!DOCTYPE svg PUBLIC "-//W3C//DTD SVG 1.1//EN" "http://www.w3.org/Graphics/SVG/1.1/DTD/svg11.dtd">
<svg version="1.1" id="Layer_1" xmlns="http://www.w3.org/2000/svg" xmlns:xlink="http://www.w3.org/1999/xlink" x="0px" y="0px"
	 width="34.555px" height="84.259px" viewBox="0 0 34.555 84.259" enable-background="new 0 0 34.555 84.259" xml:space="preserve">
<g>
	<path fill-rule="evenodd" clip-rule="evenodd" fill="#FFFFFF" d="M34.555,13.457L22.139,74.582L0,84.259l13.72-67.596
		C15.052,10.192,18.879,4.295,23.953,0L34.555,13.457z"/>
	<path fill-rule="evenodd" clip-rule="evenodd" fill="#5B5B5A" d="M18.652,45.78c2.069,0,3.741-1.689,3.741-3.779
		c0-2.062-1.672-3.779-3.741-3.779s-3.742,1.718-3.742,3.779C14.911,44.091,16.583,45.78,18.652,45.78L18.652,45.78z"/>
	<path fill="#5B5B5A" d="M34.555,13.457L22.139,74.582L0,84.259l13.72-67.596C15.052,10.192,18.879,4.295,23.953,0L34.555,13.457z
		 M21.26,73.866l12.218-60.152L23.84,1.432c-2.211,1.976-4.139,4.266-5.67,6.757c-1.644,2.691-2.863,5.611-3.486,8.675L1.333,82.599
		L21.26,73.866z"/>
</g>
</svg>
