<?xml version="1.0" encoding="utf-8"?>
<!-- Generator: Adobe Illustrator 16.0.0, SVG Export Plug-In . SVG Version: 6.00 Build 0)  -->
<!DOCTYPE svg PUBLIC "-//W3C//DTD SVG 1.1//EN" "http://www.w3.org/Graphics/SVG/1.1/DTD/svg11.dtd">
<svg version="1.1" id="Layer_1" xmlns="http://www.w3.org/2000/svg" xmlns:xlink="http://www.w3.org/1999/xlink" x="0px" y="0px"
	 width="34.555px" height="84.258px" viewBox="0 0 34.555 84.258" enable-background="new 0 0 34.555 84.258" xml:space="preserve">
<g>
	<path fill-rule="evenodd" clip-rule="evenodd" fill="#FFFFFF" d="M34.555,0L20.807,67.596c-1.304,6.5-5.131,12.396-10.233,16.662
		L0,70.803L12.416,9.705L34.555,0z"/>
	<path fill="#5B5B5A" d="M34.555,0L20.807,67.596c-1.304,6.5-5.131,12.396-10.233,16.662L0,70.803L12.416,9.705L34.555,0z
		 M19.843,67.395L33.194,1.689l-19.928,8.732L1.049,70.545l9.667,12.283c2.211-1.977,4.11-4.238,5.669-6.758
		C18.028,73.408,19.219,70.459,19.843,67.395L19.843,67.395z"/>
	<path fill-rule="evenodd" clip-rule="evenodd" fill="#5B5B5A" d="M15.817,45.951c2.041,0,3.714-1.689,3.714-3.75
		c0-2.09-1.673-3.779-3.714-3.779c-2.069,0-3.742,1.689-3.742,3.779C12.076,44.262,13.748,45.951,15.817,45.951L15.817,45.951z"/>
</g>
</svg>
