<?xml version="1.0" encoding="utf-8"?>
<!-- Generator: Adobe Illustrator 16.0.0, SVG Export Plug-In . SVG Version: 6.00 Build 0)  -->
<!DOCTYPE svg PUBLIC "-//W3C//DTD SVG 1.1//EN" "http://www.w3.org/Graphics/SVG/1.1/DTD/svg11.dtd">
<svg version="1.1" id="Layer_1" xmlns="http://www.w3.org/2000/svg" xmlns:xlink="http://www.w3.org/1999/xlink" x="0px" y="0px"
	 width="102.869px" height="20.384px" viewBox="0 0 102.869 20.384" enable-background="new 0 0 102.869 20.384"
	 xml:space="preserve">
<g>
	<polygon fill-rule="evenodd" clip-rule="evenodd" fill="#FFFFFF" points="23.244,0 83.764,0 102.869,10.192 79.625,20.384 
		19.105,20.384 0,10.192 	"/>
	<path fill="#5B5B5A" d="M23.244,0h60.52l19.105,10.192L79.625,20.384h-60.52L0,10.192L23.244,0z M83.509,1.002H23.442L2.296,10.278
		l17.064,9.104h60.066l21.146-9.276L83.509,1.002z"/>
	<path fill-rule="evenodd" clip-rule="evenodd" fill="#5B5B5A" d="M51.42,14.029c2.097,0,3.798-1.718,3.798-3.836
		c0-2.09-1.701-3.808-3.798-3.808c-2.069,0-3.77,1.718-3.77,3.808C47.65,12.311,49.351,14.029,51.42,14.029L51.42,14.029z"/>
</g>
</svg>
