<?xml version="1.0" encoding="utf-8"?>
<!-- Generator: Adobe Illustrator 16.0.0, SVG Export Plug-In . SVG Version: 6.00 Build 0)  -->
<!DOCTYPE svg PUBLIC "-//W3C//DTD SVG 1.1//EN" "http://www.w3.org/Graphics/SVG/1.1/DTD/svg11.dtd">
<svg version="1.1" id="Layer_1" xmlns="http://www.w3.org/2000/svg" xmlns:xlink="http://www.w3.org/1999/xlink" x="0px" y="0px"
	 width="32.398px" height="84.259px" viewBox="0 0 32.398 84.259" enable-background="new 0 0 32.398 84.259" xml:space="preserve">
<g>
	<path fill-rule="evenodd" clip-rule="evenodd" fill="#FFFFFF" d="M28.46,0c3.345,4.294,4.763,10.164,3.458,16.663l-13.72,67.597
		L0,74.553l12.416-61.097L28.46,0z"/>
	<path fill="#5B5B5A" d="M28.46,0c3.345,4.294,4.763,10.164,3.458,16.663l-13.72,67.597L0,74.553l12.416-61.097L28.46,0z
		 M31.011,7.874c-0.51-2.376-1.445-4.552-2.721-6.414L13.295,14L1.105,74.038l16.385,8.732l13.464-66.308
		C31.578,13.428,31.55,10.507,31.011,7.874L31.011,7.874z"/>
	<path fill-rule="evenodd" clip-rule="evenodd" fill="#5B5B5A" d="M16.214,45.895c2.069,0,3.742-1.689,3.742-3.779
		s-1.673-3.779-3.742-3.779c-2.041,0-3.713,1.689-3.713,3.779S14.173,45.895,16.214,45.895L16.214,45.895z"/>
</g>
</svg>
