<?xml version="1.0" encoding="utf-8"?>
<!-- Generator: Adobe Illustrator 16.0.0, SVG Export Plug-In . SVG Version: 6.00 Build 0)  -->
<!DOCTYPE svg PUBLIC "-//W3C//DTD SVG 1.1//EN" "http://www.w3.org/Graphics/SVG/1.1/DTD/svg11.dtd">
<svg version="1.1" id="Layer_1" xmlns="http://www.w3.org/2000/svg" xmlns:xlink="http://www.w3.org/1999/xlink" x="0px" y="0px"
	 width="87.137px" height="20.385px" viewBox="0 0 87.137 20.385" enable-background="new 0 0 87.137 20.385" xml:space="preserve">
<g>
	<path fill-rule="evenodd" clip-rule="evenodd" fill="#FFFFFF" d="M17.858,0h54.255c6.407,0,11.679,2.663,15.024,6.928
		L71.092,20.385H10.602L0,6.928C5.102,2.663,11.452,0,17.858,0L17.858,0z"/>
	<path fill="#5B5B5A" d="M17.858,0h54.255c6.407,0,11.679,2.663,15.024,6.928L71.092,20.385H10.602L0,6.928
		C5.102,2.663,11.452,0,17.858,0L17.858,0z M72.113,1.002H17.858c-3.004,0-6.038,0.63-8.9,1.718
		c-2.693,1.06-5.244,2.548-7.569,4.352l9.695,12.311h59.669L85.748,6.785c-1.502-1.689-3.373-3.092-5.527-4.094
		C77.839,1.603,75.118,1.002,72.113,1.002L72.113,1.002z"/>
	<path fill-rule="evenodd" clip-rule="evenodd" fill="#5B5B5A" d="M43.568,14.029c2.097,0,3.827-1.718,3.827-3.836
		s-1.729-3.836-3.827-3.836c-2.098,0-3.798,1.718-3.798,3.836S41.471,14.029,43.568,14.029L43.568,14.029z"/>
</g>
</svg>
