<?xml version="1.0" encoding="utf-8"?>
<!-- Generator: Adobe Illustrator 16.0.0, SVG Export Plug-In . SVG Version: 6.00 Build 0)  -->
<!DOCTYPE svg PUBLIC "-//W3C//DTD SVG 1.1//EN" "http://www.w3.org/Graphics/SVG/1.1/DTD/svg11.dtd">
<svg version="1.1" id="Layer_1" xmlns="http://www.w3.org/2000/svg" xmlns:xlink="http://www.w3.org/1999/xlink" x="0px" y="0px"
	 width="87.137px" height="20.385px" viewBox="0 0 87.137 20.385" enable-background="new 0 0 87.137 20.385" xml:space="preserve">
<g>
	<path fill-rule="evenodd" clip-rule="evenodd" fill="#FFFFFF" d="M87.137,13.457c-5.074,4.266-11.424,6.928-17.83,6.928H15.052
		c-6.406,0-11.679-2.662-15.052-6.928L16.072,0h60.492L87.137,13.457z"/>
	<path fill="#5B5B5A" d="M87.137,13.457c-5.074,4.266-11.424,6.928-17.83,6.928H15.052c-6.406,0-11.679-2.662-15.052-6.928L16.072,0
		h60.492L87.137,13.457z M78.179,17.637c2.693-1.031,5.272-2.52,7.568-4.322L76.082,1.002H16.413L1.417,13.57
		c1.502,1.719,3.374,3.121,5.528,4.096c2.381,1.115,5.102,1.717,8.107,1.717h54.255C72.312,19.383,75.317,18.754,78.179,17.637
		L78.179,17.637z"/>
	<path fill-rule="evenodd" clip-rule="evenodd" fill="#5B5B5A" d="M43.568,14.029c2.097,0,3.827-1.719,3.827-3.836
		c0-2.119-1.729-3.838-3.827-3.838c-2.098,0-3.798,1.719-3.798,3.838C39.77,12.311,41.471,14.029,43.568,14.029L43.568,14.029z"/>
</g>
</svg>
