<?xml version="1.0" encoding="utf-8"?>
<!-- Generator: Adobe Illustrator 16.0.0, SVG Export Plug-In . SVG Version: 6.00 Build 0)  -->
<!DOCTYPE svg PUBLIC "-//W3C//DTD SVG 1.1//EN" "http://www.w3.org/Graphics/SVG/1.1/DTD/svg11.dtd">
<svg version="1.1" id="Layer_1" xmlns="http://www.w3.org/2000/svg" xmlns:xlink="http://www.w3.org/1999/xlink" x="0px" y="0px"
	 width="26.889px" height="38.537px" viewBox="0 0 26.889 38.537" enable-background="new 0 0 26.889 38.537" xml:space="preserve">
<g>
	<path fill-rule="evenodd" clip-rule="evenodd" d="M6.272,22.016L3.863,33.812l-3.09,2.605c-0.652-0.83-0.936-1.976-0.68-3.206
		l2.665-13.056L6.272,22.016z"/>
	<path fill-rule="evenodd" clip-rule="evenodd" d="M9.788,4.724L7.378,16.52L3.126,18.38L5.763,5.354
		c0.255-1.26,0.992-2.405,1.984-3.235L9.788,4.724z"/>
	<path fill-rule="evenodd" clip-rule="evenodd" d="M23.791,20.156l-2.665,13.056c-0.255,1.23-0.992,2.376-1.984,3.206l-2.041-2.605
		l2.41-11.796L23.791,20.156z"/>
	<path fill-rule="evenodd" clip-rule="evenodd" d="M26.115,2.119c0.652,0.83,0.936,1.975,0.681,3.235L24.131,18.38l-3.515-1.861
		l2.409-11.796L26.115,2.119z"/>
	<path fill-rule="evenodd" clip-rule="evenodd" d="M18.206,37.191c-0.963,0.83-2.211,1.346-3.43,1.346H4.289
		c-1.219,0-2.24-0.516-2.892-1.346l3.09-2.577h11.679L18.206,37.191z"/>
	<path fill-rule="evenodd" clip-rule="evenodd" d="M12.112,0h10.488c1.219,0,2.239,0.515,2.891,1.345l-3.09,2.577H10.723
		L8.682,1.345C9.674,0.515,10.893,0,12.112,0L12.112,0z"/>
	<polygon fill-rule="evenodd" clip-rule="evenodd" points="8.002,17.292 19.681,17.292 23.365,19.268 18.887,21.244 7.208,21.244 
		3.523,19.268 	"/>
</g>
</svg>
