<?xml version="1.0" encoding="utf-8"?>
<!-- Generator: Adobe Illustrator 16.0.0, SVG Export Plug-In . SVG Version: 6.00 Build 0)  -->
<!DOCTYPE svg PUBLIC "-//W3C//DTD SVG 1.1//EN" "http://www.w3.org/Graphics/SVG/1.1/DTD/svg11.dtd">
<svg version="1.1" id="Layer_1" xmlns="http://www.w3.org/2000/svg" xmlns:xlink="http://www.w3.org/1999/xlink" x="0px" y="0px"
	 width="139.189px" height="199.611px" viewBox="0 0 139.189 199.611" enable-background="new 0 0 139.189 199.611"
	 xml:space="preserve">
<g>
	<path fill-rule="evenodd" clip-rule="evenodd" d="M32.427,114.063l-12.416,61.126L3.938,188.645
		c-3.345-4.294-4.762-10.192-3.458-16.662l13.748-67.625L32.427,114.063z"/>
	<path fill-rule="evenodd" clip-rule="evenodd" d="M135.239,10.994c3.345,4.266,4.791,10.164,3.458,16.663l-13.72,67.597
		l-18.199-9.706l12.416-61.097L135.239,10.994z"/>
	<path fill-rule="evenodd" clip-rule="evenodd" d="M94.307,192.71c-5.103,4.267-11.452,6.9-17.858,6.9H22.194
		c-6.407,0-11.679-2.634-15.024-6.9l16.044-13.456h60.492L94.307,192.71z"/>
	<path fill-rule="evenodd" clip-rule="evenodd" d="M62.757,0h54.227c6.406,0,11.707,2.663,15.052,6.929l-16.044,13.456h-60.52
		L44.899,6.929C49.973,2.663,56.351,0,62.757,0L62.757,0z"/>
	<polygon fill-rule="evenodd" clip-rule="evenodd" points="41.413,89.642 101.904,89.642 121.009,99.805 97.765,109.998 
		37.274,109.998 18.168,99.805 	"/>
</g>
</svg>
