<?xml version="1.0" encoding="utf-8"?>
<!-- Generator: Adobe Illustrator 16.0.0, SVG Export Plug-In . SVG Version: 6.00 Build 0)  -->
<!DOCTYPE svg PUBLIC "-//W3C//DTD SVG 1.1//EN" "http://www.w3.org/Graphics/SVG/1.1/DTD/svg11.dtd">
<svg version="1.1" id="Layer_1" xmlns="http://www.w3.org/2000/svg" xmlns:xlink="http://www.w3.org/1999/xlink" x="0px" y="0px"
	 width="132.036px" height="199.611px" viewBox="0 0 132.036 199.611" enable-background="new 0 0 132.036 199.611"
	 xml:space="preserve">
<g>
	<path fill-rule="evenodd" clip-rule="evenodd" d="M32.428,114.063l-12.416,61.126L3.939,188.645
		c-3.346-4.294-4.763-10.192-3.459-16.662l13.748-67.625L32.428,114.063z"/>
	<path fill-rule="evenodd" clip-rule="evenodd" d="M50.626,24.45L38.21,85.547l-22.139,9.706l13.72-67.597
		c1.332-6.499,5.158-12.396,10.232-16.663L50.626,24.45z"/>
	<path fill-rule="evenodd" clip-rule="evenodd" d="M123.136,104.358l-13.748,67.625c-1.304,6.47-5.131,12.368-10.233,16.662
		l-10.573-13.456l12.416-61.126L123.136,104.358z"/>
	<path fill-rule="evenodd" clip-rule="evenodd" d="M94.308,192.71c-5.103,4.267-11.452,6.9-17.858,6.9H22.193
		c-6.406,0-11.678-2.634-15.023-6.9l16.045-13.456h60.491L94.308,192.71z"/>
	<path fill-rule="evenodd" clip-rule="evenodd" d="M62.758,0h54.227c6.406,0,11.707,2.663,15.052,6.929l-16.044,13.456h-60.52
		L44.899,6.929C49.974,2.663,56.352,0,62.758,0L62.758,0z"/>
	<polygon fill-rule="evenodd" clip-rule="evenodd" points="41.413,89.642 101.904,89.642 121.038,99.805 97.766,109.998 
		37.274,109.998 18.169,99.805 	"/>
</g>
</svg>
