<?xml version="1.0" encoding="utf-8"?>
<!-- Generator: Adobe Illustrator 16.0.0, SVG Export Plug-In . SVG Version: 6.00 Build 0)  -->
<!DOCTYPE svg PUBLIC "-//W3C//DTD SVG 1.1//EN" "http://www.w3.org/Graphics/SVG/1.1/DTD/svg11.dtd">
<svg version="1.1" id="Layer_1" xmlns="http://www.w3.org/2000/svg" xmlns:xlink="http://www.w3.org/1999/xlink" x="0px" y="0px"
	 width="139.193px" height="199.61px" viewBox="0 0 139.193 199.61" enable-background="new 0 0 139.193 199.61"
	 xml:space="preserve">
<g>
	<path fill-rule="evenodd" clip-rule="evenodd" fill="#989898" d="M32.426,114.063L20.01,175.188L3.966,188.646
		c-3.373-4.295-4.791-10.193-3.487-16.662l13.748-67.625L32.426,114.063z"/>
	<path fill-rule="evenodd" clip-rule="evenodd" fill="#989898" d="M50.625,24.45L38.209,85.547L16.07,95.253l13.748-67.597
		c1.304-6.499,5.131-12.396,10.233-16.663L50.625,24.45z"/>
	<path fill-rule="evenodd" clip-rule="evenodd" fill="#989898" d="M123.135,104.358l-13.748,67.625
		c-1.304,6.469-5.131,12.367-10.233,16.662L88.58,175.188l12.416-61.125L123.135,104.358z"/>
	<path fill-rule="evenodd" clip-rule="evenodd" fill="#989898" d="M135.239,10.994c3.373,4.266,4.79,10.164,3.458,16.663
		l-13.72,67.597l-18.198-9.706l12.415-61.097L135.239,10.994z"/>
	<path fill-rule="evenodd" clip-rule="evenodd" fill="#989898" d="M94.307,192.71c-5.103,4.268-11.452,6.9-17.858,6.9H22.193
		c-6.406,0-11.679-2.633-15.023-6.9l16.044-13.455h60.492L94.307,192.71z"/>
	<path fill-rule="evenodd" clip-rule="evenodd" fill="#989898" d="M62.757,0h54.255c6.378,0,11.679,2.663,15.024,6.929
		l-16.045,13.456h-60.52L44.898,6.929C50.001,2.663,56.351,0,62.757,0L62.757,0z"/>
	<polygon fill-rule="evenodd" clip-rule="evenodd" fill="#989898" points="41.412,89.642 101.932,89.642 121.037,99.805 
		97.793,109.997 37.273,109.997 18.168,99.805 	"/>
</g>
</svg>
