<?xml version="1.0" encoding="utf-8"?>
<!-- Generator: Adobe Illustrator 16.0.0, SVG Export Plug-In . SVG Version: 6.00 Build 0)  -->
<!DOCTYPE svg PUBLIC "-//W3C//DTD SVG 1.1//EN" "http://www.w3.org/Graphics/SVG/1.1/DTD/svg11.dtd">
<svg version="1.1" id="Layer_1" xmlns="http://www.w3.org/2000/svg" xmlns:xlink="http://www.w3.org/1999/xlink" x="0px" y="0px"
	 width="16.668px" height="40.282px" viewBox="0 0 16.668 40.282" enable-background="new 0 0 16.668 40.282" xml:space="preserve">
<g>
	<path fill-rule="evenodd" clip-rule="evenodd" fill="#5B5B5A" d="M7.625,21.988c0.992,0,1.785-0.831,1.785-1.833
		c0-1.001-0.793-1.803-1.785-1.803s-1.814,0.802-1.814,1.803C5.811,21.157,6.633,21.988,7.625,21.988L7.625,21.988z"/>
	<path fill="#5B5B5A" d="M16.583,0.43l-6.434,31.751c-0.313,1.518-0.908,2.977-1.73,4.295c-0.821,1.373-1.898,2.605-3.118,3.664
		l-0.198,0.143C3.402,38.079,1.701,35.874,0,33.669C1.843,24.05,3.827,14.315,5.839,4.752C9.44,3.121,13.067,1.575,16.668,0
		L16.583,0.43z M9.694,32.095l6.35-31.322L6.236,5.068L0.482,33.556l4.706,6.068c1.105-0.973,2.098-2.119,2.863-3.379
		C8.844,34.958,9.411,33.556,9.694,32.095L9.694,32.095z"/>
</g>
</svg>
