<?xml version="1.0" encoding="utf-8"?>
<!-- Generator: Adobe Illustrator 16.0.0, SVG Export Plug-In . SVG Version: 6.00 Build 0)  -->
<!DOCTYPE svg PUBLIC "-//W3C//DTD SVG 1.1//EN" "http://www.w3.org/Graphics/SVG/1.1/DTD/svg11.dtd">
<svg version="1.1" id="Layer_1" xmlns="http://www.w3.org/2000/svg" xmlns:xlink="http://www.w3.org/1999/xlink" x="0px" y="0px"
	 width="355.039px" height="65.592px" viewBox="0 0 355.039 65.592" enable-background="new 0 0 355.039 65.592"
	 xml:space="preserve">
<g>
	<path fill-rule="evenodd" clip-rule="evenodd" fill="#3B2A98" d="M102.671,36.703l-1.105,5.67c-0.34,1.373-0.766,2.719-1.275,3.979
		c-0.596,1.432-1.333,2.748-2.211,3.865c-1.644,2.176-3.827,3.75-6.378,4.811c-2.636,1.117-5.641,1.66-8.787,1.66
		c-3.402,0-7.059-0.715-9.723-2.549c-2.211-1.574-3.713-3.893-3.77-7.215l-0.028-0.027c0-0.916,0.057-1.891,0.199-2.92
		c0.085-0.975,0.255-1.977,0.51-3.008l0.737-3.721h0.057l0.113-0.545l0,0l2.438-11.967l6.265-5.268
		c1.332,1.689,1.899,3.979,1.36,6.527l-2.268,10.707l0,0l-1.105,5.67l0,0c-0.255,1.201-0.51,2.633-0.51,3.406l0,0
		c0.028,1.461,0.708,2.348,1.786,2.863c1.276,0.602,3.09,0.773,5.046,0.773c1.587,0,3.118-0.287,4.45-0.803
		c1.276-0.516,2.381-1.23,3.175-2.146v-0.029c0.482-0.516,0.907-1.287,1.248-2.119c0.425-1.059,0.765-2.262,0.992-3.463l0,0
		l0.482-2.348l0.425-1.805l0,0l2.41-11.967l6.293-5.268c1.332,1.689,1.871,3.979,1.36,6.527L102.671,36.703L102.671,36.703z"/>
	<path fill-rule="evenodd" clip-rule="evenodd" fill="#3B2A98" d="M116.476,42.314l-2.834,13.572h-7.654l2.268-11.51l1.105-5.869
		l0.425-1.805l0,0l2.438-11.967l6.293-5.268c1.021,1.316,1.587,3.006,1.531,4.895c1.021-0.857,2.126-1.631,3.288-2.262
		c2.296-1.23,4.791-1.975,7.172-1.975c3.061,0,5.697,0.688,7.625,2.09c1.247,0.945,2.183,2.176,2.721,3.75
		c1.333-1.459,2.948-2.691,4.706-3.635c2.523-1.404,5.329-2.205,7.909-2.205c2.977,0,5.896,0.715,7.994,2.434
		c3.118,2.52,3.26,5.813,2.948,9.391c-0.114,0.973-0.227,1.918-0.369,2.719c-1.19,7.016-2.75,14.201-4.11,21.217h-7.965
		c1.134-5.842,3.487-17.008,4.195-22.133c0.227-1.717,0.539-3.865-1.021-5.066c-0.907-0.717-2.296-1.031-3.855-1.031
		c-1.417,0-3.005,0.4-4.507,1.174c-2.863,1.461-4.932,3.951-5.896,7.014l0,0c-0.34,1.031-0.567,1.748-0.822,2.75
		c-0.199,0.857-0.397,1.975-0.595,2.834c-0.822,3.951-1.701,8.303-2.948,14.459h-7.512l3.798-19.871l0,0
		c0.397-2.203,1.077-5.553-0.822-7.215c-0.85-0.744-2.126-1.145-3.628-1.145c-1.446,0-3.005,0.4-4.536,1.174
		c-2.977,1.518-5.131,4.209-6.038,7.387l-0.085,0.486l0,0L116.476,42.314L116.476,42.314z"/>
	<path fill="#3B2A98" d="M6.803,0h51.364c1.842,0,3.543,0.773,4.791,2.004c1.219,1.26,1.984,2.977,1.984,4.867v51.877
		c0,1.891-0.766,3.607-1.984,4.84c-1.247,1.23-2.948,2.004-4.791,2.004H6.803c-1.871,0-3.572-0.773-4.819-2.004
		C0.766,62.355,0,60.639,0,58.748V6.871C0,4.98,0.766,3.264,1.984,2.004C3.231,0.773,4.932,0,6.803,0L6.803,0z M58.167,0.773H6.803
		c-1.672,0-3.175,0.686-4.28,1.773C1.446,3.664,0.766,5.182,0.766,6.871v51.877c0,1.662,0.68,3.207,1.757,4.295
		c1.105,1.117,2.608,1.805,4.28,1.805h51.364c1.644,0,3.146-0.688,4.252-1.805c1.105-1.088,1.786-2.633,1.786-4.295V6.871
		c0-1.689-0.68-3.207-1.786-4.324C61.313,1.459,59.811,0.773,58.167,0.773L58.167,0.773z"/>
	<path fill="#00A658" d="M175.465,0h51.363c1.871,0,3.572,0.773,4.791,2.004c1.247,1.26,2.013,2.977,2.013,4.867v51.877
		c0,1.891-0.766,3.607-2.013,4.84c-1.219,1.23-2.92,2.004-4.791,2.004h-51.363c-1.871,0-3.572-0.773-4.791-2.004
		c-1.247-1.232-2.012-2.949-2.012-4.84V6.871c0-1.891,0.765-3.607,2.012-4.867C171.893,0.773,173.594,0,175.465,0L175.465,0z
		 M226.828,0.773h-51.363c-1.673,0-3.175,0.686-4.281,1.773c-1.077,1.117-1.757,2.635-1.757,4.324v51.877
		c0,1.662,0.68,3.207,1.757,4.295c1.106,1.117,2.608,1.805,4.281,1.805h51.363c1.645,0,3.175-0.688,4.252-1.805
		c1.105-1.088,1.786-2.633,1.786-4.295V6.871c0-1.689-0.681-3.207-1.786-4.324C230.003,1.459,228.473,0.773,226.828,0.773
		L226.828,0.773z"/>
	<path fill-rule="evenodd" clip-rule="evenodd" fill="#00A658" d="M186.774,32.811l-2.579,12.797l-6.746,5.641
		c-1.39-1.805-1.984-4.266-1.446-6.986l2.324-11.451l2.325-11.453c0.566-2.719,2.154-5.211,4.309-6.986l4.422,5.641L186.774,32.811z
		"/>
	<path fill-rule="evenodd" clip-rule="evenodd" fill="#EBEBEB" d="M223.966,32.811l-2.354,11.451
		c-0.538,2.721-2.154,5.182-4.28,6.986l-4.422-5.641l2.58-12.797h0.028l2.579-12.799l6.718-5.641
		c1.418,1.775,2.013,4.268,1.475,6.986L223.966,32.811L223.966,32.811z"/>
	<path fill-rule="evenodd" clip-rule="evenodd" fill="#00A658" d="M215.291,52.938c-2.126,1.803-4.79,2.891-7.455,2.891h-22.733
		c-2.693,0-4.904-1.088-6.293-2.891l6.718-5.641h25.342L215.291,52.938z"/>
	<path fill-rule="evenodd" clip-rule="evenodd" fill="#00A658" d="M194.457,9.762h22.733c2.665,0,4.876,1.117,6.293,2.893
		l-6.718,5.641h-25.342l-4.45-5.641C189.128,10.879,191.792,9.762,194.457,9.762L194.457,9.762z"/>
	<path fill-rule="evenodd" clip-rule="evenodd" fill="#3B2A98" d="M18.113,32.811l-2.608,12.797l-6.718,5.641
		c-1.389-1.805-2.013-4.266-1.446-6.986l2.324-11.451l2.325-11.453c0.567-2.719,2.154-5.211,4.28-6.986l4.45,5.641L18.113,32.811z"
		/>
	<path fill-rule="evenodd" clip-rule="evenodd" fill="#3B2A98" d="M55.275,32.811l-2.324,11.451
		c-0.539,2.721-2.154,5.182-4.28,6.986l-4.422-5.641l2.579-12.797l0,0l2.608-12.799l6.718-5.641
		c1.417,1.775,2.013,4.268,1.446,6.986L55.275,32.811L55.275,32.811z"/>
	<path fill-rule="evenodd" clip-rule="evenodd" fill="#EBEBEB" d="M46.63,52.938c-2.126,1.803-4.791,2.891-7.483,2.891H16.441
		c-2.693,0-4.904-1.088-6.293-2.891l6.718-5.641h25.342L46.63,52.938z"/>
	<path fill-rule="evenodd" clip-rule="evenodd" fill="#3B2A98" d="M25.795,9.762h22.734c2.665,0,4.875,1.117,6.293,2.893
		l-6.718,5.641H22.762l-4.45-5.641C20.438,10.879,23.103,9.762,25.795,9.762L25.795,9.762z"/>
	<path fill-rule="evenodd" clip-rule="evenodd" fill="#00A658" d="M271.049,24.25c2.835,2.547,4.648,6.184,4.648,10.793
		c0,5.754-2.098,11.395-5.924,15.461c-3.458,3.693-8.362,6.098-14.4,6.098c-4.394,0-8.759-1.518-11.905-4.381
		c-2.807-2.547-4.62-6.184-4.62-10.793c0-5.84,2.069-11.424,5.867-15.461c3.486-3.693,8.391-6.068,14.457-6.068
		C263.565,19.898,267.931,21.387,271.049,24.25L271.049,24.25z M249.165,46.838c1.418,1.318,3.601,2.148,6.775,2.148
		c3.401,0,6.236-1.432,8.249-3.693c2.183-2.404,3.458-5.783,3.458-9.391c0-2.605-0.822-4.754-2.381-6.213
		c-1.531-1.432-3.771-2.262-6.69-2.262c-3.231,0-6.065,1.518-8.106,3.807c-2.239,2.492-3.572,5.898-3.572,9.334
		C246.897,43.031,247.521,45.293,249.165,46.838L249.165,46.838z"/>
	<path fill-rule="evenodd" clip-rule="evenodd" fill="#00A658" d="M317.82,21.988l-6.576,33.869h-7.625l0.51-2.662
		c-0.51,0.516-1.077,0.973-1.672,1.373c-1.871,1.26-4.139,2.033-7.144,2.033c-4.479,0-7.994-1.689-10.517-4.236
		c-2.807-2.922-4.309-6.93-4.309-10.938c0-5.813,2.041-11.51,6.01-15.574c3.543-3.58,8.561-5.898,15.052-5.898
		c1.559,0,3.175,0.172,4.733,0.43c1.361,0.229,2.637,0.516,3.714,0.801l1.899-9.791l0.028-0.201l0,0l0.227-1.174l6.406-5.268
		c1.332,1.66,1.871,3.98,1.36,6.527L317.82,21.988z M306.511,39.223l2.04-10.449c-0.793-0.287-1.842-0.572-2.947-0.773
		c-1.56-0.314-3.26-0.516-4.621-0.516c-3.798,0-6.746,1.402-8.844,3.607c-2.296,2.463-3.515,5.926-3.515,9.592
		c0,2.691,0.765,4.695,2.041,6.068c1.332,1.49,3.288,2.234,5.499,2.234c1.53,0,2.862-0.4,4.054-1.002
		c1.445-0.744,2.636-1.832,3.543-2.92l0.028-0.029c0.596-0.688,1.162-1.604,1.615-2.576
		C305.887,41.398,306.283,40.254,306.511,39.223L306.511,39.223z"/>
	<path fill-rule="evenodd" clip-rule="evenodd" fill="#00A658" d="M336.274,56.602c-4.678,0-8.845-1.574-11.821-4.295
		c-2.919-2.662-4.705-6.412-4.705-10.879c0-6.07,2.154-11.51,5.812-15.402c3.571-3.809,8.589-6.127,14.484-6.127
		c1.956,0,4.054,0.342,6.01,1.029c1.843,0.658,3.543,1.604,4.961,2.893l0,0c1.247,1.145,2.268,2.49,2.976,3.979
		c0.681,1.432,1.049,2.979,1.049,4.582c0,2.232-0.793,4.695-3.032,6.412c-1.673,1.318-4.139,2.176-7.711,2.176h-16.81v0.201
		c0,2.348,0.851,4.408,2.495,5.813c2.636,2.318,5.499,2.09,8.702,2.09h1.587h5.557l3.883,4.98c-1.87,1.547-4.195,2.549-6.576,2.549
		C340.866,56.602,338.57,56.572,336.274,56.602L336.274,56.602z M332.617,29.432c-1.445,1.059-2.664,2.52-3.486,4.408h14.967
		c1.19,0,2.069-0.199,2.637-0.572c0.425-0.285,0.651-0.744,0.651-1.402c0-0.572-0.227-1.117-0.595-1.66
		c-0.482-0.631-1.134-1.203-1.899-1.66c-0.737-0.43-1.56-0.717-2.409-0.918c-0.992-0.229-2.041-0.342-2.977-0.342
		C336.954,27.285,334.545,28,332.617,29.432L332.617,29.432z"/>
</g>
</svg>
