<?xml version="1.0" encoding="utf-8"?>
<!-- Generator: Adobe Illustrator 16.0.0, SVG Export Plug-In . SVG Version: 6.00 Build 0)  -->
<!DOCTYPE svg PUBLIC "-//W3C//DTD SVG 1.1//EN" "http://www.w3.org/Graphics/SVG/1.1/DTD/svg11.dtd">
<svg version="1.1" id="Layer_1" xmlns="http://www.w3.org/2000/svg" xmlns:xlink="http://www.w3.org/1999/xlink" x="0px" y="0px"
	 width="15.602px" height="40.254px" viewBox="0 0 15.602 40.254" enable-background="new 0 0 15.602 40.254" xml:space="preserve">
<g>
	<path fill="#5B5B5A" d="M15.572,4.924L9.734,33.727c-2.552,2.148-5.131,4.352-7.683,6.527L1.91,40.082
		c-0.822-1.059-1.417-2.348-1.701-3.721c-0.284-1.346-0.284-2.777,0.028-4.295L6.701,0l8.901,4.752L15.572,4.924z M9.336,33.469
		L15.092,5.01L7.041,0.717L0.663,32.182c-0.283,1.43-0.283,2.805,0,4.094c0.255,1.23,0.766,2.348,1.474,3.32L9.336,33.469z"/>
	<path fill-rule="evenodd" clip-rule="evenodd" fill="#5B5B5A" d="M7.777,21.959c0.992,0,1.814-0.801,1.814-1.803
		s-0.822-1.832-1.814-1.832c-0.992,0-1.785,0.83-1.785,1.832S6.786,21.959,7.777,21.959L7.777,21.959z"/>
</g>
</svg>
