<?xml version="1.0" encoding="utf-8"?>
<!-- Generator: Adobe Illustrator 16.0.0, SVG Export Plug-In . SVG Version: 6.00 Build 0)  -->
<!DOCTYPE svg PUBLIC "-//W3C//DTD SVG 1.1//EN" "http://www.w3.org/Graphics/SVG/1.1/DTD/svg11.dtd">
<svg version="1.1" id="Layer_1" xmlns="http://www.w3.org/2000/svg" xmlns:xlink="http://www.w3.org/1999/xlink" x="0px" y="0px"
	 width="16.583px" height="40.283px" viewBox="0 0 16.583 40.283" enable-background="new 0 0 16.583 40.283" xml:space="preserve">
<g>
	<path fill="#5B5B5A" d="M16.583,6.728l-5.84,28.802C7.144,37.105,3.572,38.708,0,40.283L6.435,8.16
		c0.312-1.546,0.907-3.006,1.701-4.323c0.85-1.403,1.928-2.634,3.147-3.693L11.48,0l5.104,6.613V6.728z M10.347,35.215l5.754-28.487
		l-4.705-6.07c-1.105,0.974-2.098,2.119-2.863,3.407c-0.794,1.288-1.361,2.691-1.645,4.18L0.624,39.51L10.347,35.215z"/>
	<path fill-rule="evenodd" clip-rule="evenodd" fill="#5B5B5A" d="M8.958,21.902c0.992,0,1.785-0.831,1.785-1.804
		c0-1.002-0.793-1.833-1.785-1.833c-0.993,0-1.787,0.83-1.787,1.833C7.172,21.072,7.965,21.902,8.958,21.902L8.958,21.902z"/>
</g>
</svg>
