<?xml version="1.0" encoding="utf-8"?>
<!-- Generator: Adobe Illustrator 16.0.0, SVG Export Plug-In . SVG Version: 6.00 Build 0)  -->
<!DOCTYPE svg PUBLIC "-//W3C//DTD SVG 1.1//EN" "http://www.w3.org/Graphics/SVG/1.1/DTD/svg11.dtd">
<svg version="1.1" id="Layer_1" xmlns="http://www.w3.org/2000/svg" xmlns:xlink="http://www.w3.org/1999/xlink" x="0px" y="0px"
	 width="132.036px" height="199.611px" viewBox="0 0 132.036 199.611" enable-background="new 0 0 132.036 199.611"
	 xml:space="preserve">
<g>
	<path fill-rule="evenodd" clip-rule="evenodd" d="M115.965,104.358l-13.72,67.625c-1.332,6.47-5.159,12.368-10.233,16.662
		l-10.602-13.456l12.416-61.126L115.965,104.358z"/>
	<path fill-rule="evenodd" clip-rule="evenodd" d="M128.098,10.994c3.345,4.266,4.762,10.164,3.458,16.663l-13.748,67.597
		l-18.199-9.706l12.416-61.097L128.098,10.994z"/>
	<path fill-rule="evenodd" clip-rule="evenodd" d="M87.137,192.71c-5.074,4.267-11.452,6.9-17.858,6.9H15.052
		c-6.406,0-11.707-2.634-15.052-6.9l16.044-13.456h60.52L87.137,192.71z"/>
	<path fill-rule="evenodd" clip-rule="evenodd" d="M55.587,0h54.255c6.406,0,11.679,2.663,15.023,6.929l-16.044,13.456H48.331
		L37.729,6.929C42.832,2.663,49.181,0,55.587,0L55.587,0z"/>
	<polygon fill-rule="evenodd" clip-rule="evenodd" points="34.271,89.642 94.762,89.642 113.868,99.805 90.624,109.998 
		30.132,109.998 11.027,99.805 	"/>
</g>
</svg>
