<?xml version="1.0" encoding="utf-8"?>
<!-- Generator: Adobe Illustrator 16.0.0, SVG Export Plug-In . SVG Version: 6.00 Build 0)  -->
<!DOCTYPE svg PUBLIC "-//W3C//DTD SVG 1.1//EN" "http://www.w3.org/Graphics/SVG/1.1/DTD/svg11.dtd">
<svg version="1.1" id="Layer_1" xmlns="http://www.w3.org/2000/svg" xmlns:xlink="http://www.w3.org/1999/xlink" x="0px" y="0px"
	 width="358.611px" height="69.744px" viewBox="0 0 358.611 69.744" enable-background="new 0 0 358.611 69.744"
	 xml:space="preserve">
<g>
	<path d="M7.427,0h54.198c2.041,0,3.912,0.859,5.244,2.205c1.36,1.375,2.183,3.235,2.183,5.297v54.741
		c0,2.062-0.822,3.951-2.183,5.296c-1.333,1.375-3.203,2.205-5.244,2.205H7.427c-2.041,0-3.884-0.83-5.244-2.205
		C0.851,66.193,0,64.304,0,62.243V7.501C0,5.44,0.851,3.579,2.183,2.205C3.543,0.859,5.386,0,7.427,0L7.427,0z M61.625,1.346H7.427
		c-1.673,0-3.204,0.688-4.309,1.804C2.013,4.266,1.333,5.812,1.333,7.501v54.741c0,1.718,0.68,3.264,1.786,4.38
		s2.636,1.804,4.309,1.804h54.198c1.701,0,3.231-0.687,4.337-1.804s1.786-2.663,1.786-4.38V7.501c0-1.689-0.68-3.235-1.786-4.352
		C64.857,2.033,63.326,1.346,61.625,1.346L61.625,1.346z"/>
	<path d="M178.696,0h54.198c2.041,0,3.884,0.859,5.244,2.205c1.332,1.375,2.183,3.235,2.183,5.297v54.741
		c0,2.062-0.851,3.951-2.183,5.296c-1.36,1.375-3.203,2.205-5.244,2.205h-54.198c-2.041,0-3.912-0.83-5.244-2.205
		c-1.36-1.346-2.183-3.235-2.183-5.296V7.501c0-2.062,0.822-3.922,2.183-5.297C174.785,0.859,176.655,0,178.696,0L178.696,0z
		 M232.895,1.346h-54.198c-1.701,0-3.231,0.688-4.337,1.804c-1.105,1.117-1.786,2.663-1.786,4.352v54.741
		c0,1.718,0.681,3.264,1.786,4.38s2.636,1.804,4.337,1.804h54.198c1.673,0,3.203-0.687,4.309-1.804s1.786-2.663,1.786-4.38V7.501
		c0-1.689-0.681-3.235-1.786-4.352C236.098,2.033,234.567,1.346,232.895,1.346L232.895,1.346z"/>
	<path fill-rule="evenodd" clip-rule="evenodd" fill="#2E3092" d="M75.771,56.488 M98.362,49.874
		c-4.337,4.925-8.787,7.473-13.323,7.473c-2.778,0-5.017-0.859-6.775-2.462c-1.672-1.632-2.494-3.607-2.494-5.927
		c0-1.546,0.34-4.151,1.105-7.873l4.394-21.129h6.123l-4.791,23.362c-0.425,1.976-0.624,3.464-0.624,4.524
		c0,1.403,0.397,2.462,1.248,3.235c0.822,0.773,2.013,1.117,3.628,1.117c1.729,0,3.401-0.43,5.074-1.26
		c1.616-0.859,3.09-1.976,4.252-3.464c1.19-1.403,2.183-3.092,2.948-5.067c0.482-1.26,1.021-3.521,1.672-6.671l3.26-15.775h6.208
		l-7.597,36.532H97.03L98.362,49.874z M112.422,56.488 M112.422,56.488l7.54-36.532h6.208l-1.276,6.041
		c2.24-2.605,4.337-4.352,6.151-5.325c1.814-1.002,3.77-1.489,5.839-1.489c2.239,0,4.11,0.573,5.669,1.747
		c1.445,1.202,2.494,2.892,2.919,5.067c1.871-2.319,3.827-4.008,5.839-5.125c2.041-1.116,4.139-1.689,6.435-1.689
		c2.977,0,5.216,0.687,6.747,2.119c1.531,1.46,2.296,3.521,2.296,6.127c0,1.117-0.284,2.949-0.822,5.554l-4.819,23.505h-6.208
		l4.961-24.135c0.482-1.976,0.68-3.378,0.68-4.237c0-1.203-0.397-2.119-1.105-2.806c-0.766-0.716-1.814-1.06-3.203-1.06
		c-1.814,0-3.685,0.573-5.584,1.689c-1.956,1.116-3.401,2.605-4.45,4.438c-1.049,1.833-1.956,4.638-2.778,8.36l-3.714,17.75h-6.123
		l5.074-24.622c0.369-1.718,0.567-2.892,0.567-3.607c0-1.203-0.34-2.176-1.105-2.892c-0.709-0.687-1.673-1.117-2.863-1.117
		c-1.757,0-3.572,0.573-5.499,1.689c-1.899,1.116-3.487,2.663-4.677,4.724c-1.19,1.976-2.154,4.839-3.005,8.589l-3.543,17.235
		H112.422z"/>
	<path fill-rule="evenodd" clip-rule="evenodd" fill="#00A54F" d="M247.437,56.459 M247.437,42.602
		c0-7.129,2.098-13.027,6.208-17.693c3.43-3.865,7.965-5.755,13.521-5.755c4.337,0,7.88,1.317,10.545,4.066
		c2.636,2.748,3.968,6.499,3.968,11.137c0,4.209-0.85,8.103-2.522,11.739c-1.673,3.607-4.025,6.356-7.172,8.332
		c-3.062,1.889-6.35,2.863-9.751,2.863c-2.863,0-5.386-0.63-7.682-1.804c-2.297-1.203-4.11-2.978-5.301-5.153
		C248.061,48.07,247.437,45.465,247.437,42.602L247.437,42.602z M253.588,41.944c0,3.464,0.822,6.069,2.438,7.816
		c1.673,1.833,3.771,2.691,6.265,2.691c1.332,0,2.579-0.287,3.912-0.773c1.332-0.572,2.494-1.345,3.628-2.462
		c1.105-1.146,2.013-2.405,2.778-3.808c0.851-1.403,1.474-2.892,1.956-4.495c0.68-2.348,1.049-4.438,1.049-6.557
		c0-3.321-0.851-5.84-2.523-7.673c-1.587-1.832-3.685-2.749-6.208-2.749c-1.87,0-3.685,0.487-5.216,1.403
		c-1.615,0.917-3.062,2.262-4.309,4.094c-1.332,1.747-2.239,3.865-2.862,6.184C253.928,38.021,253.588,40.111,253.588,41.944
		L253.588,41.944z M286.47,56.459 M309.487,51.191c-3.572,4.065-7.172,6.098-11.027,6.098c-3.401,0-6.265-1.317-8.561-3.865
		c-2.296-2.52-3.43-6.27-3.43-11.108c0-4.438,0.907-8.532,2.721-12.197c1.814-3.665,4.054-6.413,6.775-8.217
		c2.721-1.832,5.442-2.749,8.164-2.749c4.45,0,7.852,2.176,10.176,6.528l4.025-19.641h6.151l-10.403,50.418h-5.697L309.487,51.191z
		 M292.621,41.171c0,2.548,0.198,4.523,0.68,5.983c0.567,1.489,1.418,2.691,2.58,3.665c1.19,1.002,2.664,1.488,4.337,1.488
		c2.777,0,5.301-1.488,7.597-4.438c3.062-3.865,4.535-8.675,4.535-14.43c0-2.892-0.708-5.153-2.239-6.757
		c-1.474-1.632-3.345-2.462-5.641-2.462c-1.475,0-2.807,0.343-4.054,1.059c-1.19,0.63-2.353,1.747-3.543,3.378
		c-1.248,1.546-2.239,3.579-3.062,6.041C293.046,37.163,292.621,39.281,292.621,41.171L292.621,41.171z M325.162,56.459
		 M350.391,44.063l6.01,0.572c-0.851,3.035-2.863,5.898-5.925,8.589c-3.146,2.663-6.831,4.065-11.083,4.065
		c-2.665,0-5.159-0.63-7.398-1.89s-3.912-3.092-5.074-5.411c-1.19-2.405-1.758-5.153-1.758-8.188c0-4.008,0.907-7.874,2.722-11.596
		c1.814-3.75,4.195-6.556,7.115-8.389c2.919-1.746,6.065-2.663,9.411-2.663c4.309,0,7.738,1.317,10.317,4.008
		c2.58,2.749,3.884,6.413,3.884,11.051c0,1.833-0.113,3.665-0.481,5.554h-26.618c-0.085,0.716-0.142,1.346-0.142,1.918
		c0,3.378,0.766,5.984,2.381,7.816c1.531,1.804,3.402,2.663,5.642,2.663c2.154,0,4.167-0.715,6.265-2.033
		C347.67,48.7,349.285,46.668,350.391,44.063L350.391,44.063z M332.476,34.986h20.296c0.058-0.63,0.058-1.059,0.058-1.346
		c0-3.149-0.766-5.554-2.297-7.186c-1.587-1.689-3.543-2.52-5.98-2.52c-2.665,0-5.018,0.974-7.2,2.806
		C335.197,28.573,333.609,31.322,332.476,34.986L332.476,34.986z"/>
	<path fill-rule="evenodd" clip-rule="evenodd" fill="#00A54F" d="M190.63,34.872l-2.749,13.514l-7.087,5.955
		c-1.474-1.89-2.126-4.495-1.53-7.387l2.466-12.082l2.438-12.082c0.596-2.863,2.268-5.468,4.535-7.358l4.678,5.955L190.63,34.872z"
		/>
	<path fill-rule="evenodd" clip-rule="evenodd" fill="#E7EDC9" d="M229.861,34.872l-2.466,12.082
		c-0.566,2.892-2.268,5.497-4.507,7.387l-4.678-5.955l2.722-13.514l0,0l2.75-13.485l7.086-5.955c1.503,1.89,2.126,4.495,1.531,7.358
		L229.861,34.872L229.861,34.872z"/>
	<path fill-rule="evenodd" clip-rule="evenodd" fill="#00A54F" d="M220.734,56.145c-2.268,1.861-5.074,3.035-7.881,3.035h-23.98
		c-2.835,0-5.188-1.174-6.662-3.035l7.087-5.955h26.759L220.734,56.145z"/>
	<path fill-rule="evenodd" clip-rule="evenodd" fill="#00A54F" d="M198.737,10.565h23.981c2.834,0,5.159,1.174,6.633,3.063
		l-7.087,5.955h-26.73l-4.678-5.955C193.097,11.739,195.902,10.565,198.737,10.565L198.737,10.565z"/>
	<path fill-rule="evenodd" clip-rule="evenodd" fill="#2E3092" d="M19.389,34.872l-2.75,13.514l-7.086,5.955
		c-1.502-1.89-2.126-4.495-1.531-7.387l2.438-12.082l2.466-12.082c0.567-2.863,2.268-5.468,4.507-7.358l4.677,5.955L19.389,34.872z"
		/>
	<path fill-rule="evenodd" clip-rule="evenodd" fill="#2E3092" d="M58.592,34.872l-2.438,12.082
		c-0.596,2.892-2.268,5.497-4.536,7.387l-4.677-5.955l2.75-13.514l0,0l2.75-13.485l7.086-5.955c1.474,1.89,2.126,4.495,1.531,7.358
		L58.592,34.872L58.592,34.872z"/>
	<path fill-rule="evenodd" clip-rule="evenodd" fill="#E6E7E9" d="M49.465,56.145c-2.239,1.861-5.046,3.035-7.88,3.035H17.604
		c-2.835,0-5.159-1.174-6.633-3.035l7.087-5.955h26.73L49.465,56.145z"/>
	<path fill-rule="evenodd" clip-rule="evenodd" fill="#2E3092" d="M27.496,10.565h23.953c2.834,0,5.187,1.174,6.661,3.063
		l-7.086,5.955H24.265l-4.677-5.955C21.855,11.739,24.662,10.565,27.496,10.565L27.496,10.565z"/>
</g>
</svg>
