<?xml version="1.0" encoding="utf-8"?>
<!-- Generator: Adobe Illustrator 16.0.0, SVG Export Plug-In . SVG Version: 6.00 Build 0)  -->
<!DOCTYPE svg PUBLIC "-//W3C//DTD SVG 1.1//EN" "http://www.w3.org/Graphics/SVG/1.1/DTD/svg11.dtd">
<svg version="1.1" id="Layer_1" xmlns="http://www.w3.org/2000/svg" xmlns:xlink="http://www.w3.org/1999/xlink" x="0px" y="0px"
	 width="139.193px" height="199.611px" viewBox="0 0 139.193 199.611" enable-background="new 0 0 139.193 199.611"
	 xml:space="preserve">
<g>
	<path fill-rule="evenodd" clip-rule="evenodd" d="M32.426,114.063l-12.415,61.126L3.938,188.645
		c-3.345-4.294-4.762-10.192-3.458-16.662l13.748-67.625L32.426,114.063z"/>
	<path fill-rule="evenodd" clip-rule="evenodd" d="M50.625,24.45L38.209,85.547L16.07,95.253l13.72-67.597
		c1.332-6.499,5.159-12.396,10.232-16.663L50.625,24.45z"/>
	<path fill-rule="evenodd" clip-rule="evenodd" d="M123.135,104.358l-13.748,67.625c-1.304,6.47-5.131,12.368-10.233,16.662
		L88.58,175.189l12.416-61.126L123.135,104.358z"/>
	<path fill-rule="evenodd" clip-rule="evenodd" d="M135.238,10.994c3.374,4.266,4.791,10.164,3.459,16.663l-13.72,67.597
		l-18.198-9.706l12.415-61.097L135.238,10.994z"/>
	<path fill-rule="evenodd" clip-rule="evenodd" d="M94.307,192.71c-5.103,4.267-11.452,6.9-17.858,6.9H22.193
		c-6.406,0-11.679-2.634-15.024-6.9l16.045-13.456h60.491L94.307,192.71z"/>
	<path fill-rule="evenodd" clip-rule="evenodd" d="M62.757,0h54.227c6.406,0,11.707,2.663,15.052,6.929l-16.044,13.456h-60.52
		L44.898,6.929C49.973,2.663,56.351,0,62.757,0L62.757,0z"/>
	<polygon fill-rule="evenodd" clip-rule="evenodd" points="41.412,89.642 101.903,89.642 121.037,99.805 97.765,109.998 
		37.273,109.998 18.168,99.805 	"/>
</g>
</svg>
