<?xml version="1.0" encoding="utf-8"?>
<!-- Generator: Adobe Illustrator 16.0.0, SVG Export Plug-In . SVG Version: 6.00 Build 0)  -->
<!DOCTYPE svg PUBLIC "-//W3C//DTD SVG 1.1//EN" "http://www.w3.org/Graphics/SVG/1.1/DTD/svg11.dtd">
<svg version="1.1" id="Layer_1" xmlns="http://www.w3.org/2000/svg" xmlns:xlink="http://www.w3.org/1999/xlink" x="0px" y="0px"
	 width="1164.187px" height="199.61px" viewBox="0 0 1164.187 199.61" enable-background="new 0 0 1164.187 199.61"
	 xml:space="preserve">
<g>
	<path fill-rule="evenodd" clip-rule="evenodd" d="M83.055,114.063L70.64,175.188l-16.073,13.457
		c-3.345-4.295-4.762-10.193-3.458-16.662l13.748-67.625L83.055,114.063z"/>
	<path fill-rule="evenodd" clip-rule="evenodd" d="M639.836,114.063l-12.416,61.125l-16.072,13.457
		c-3.345-4.295-4.762-10.193-3.458-16.662l13.748-67.625L639.836,114.063z"/>
	<path fill-rule="evenodd" clip-rule="evenodd" d="M918.227,114.063l-12.416,61.125l-16.072,13.457
		c-3.345-4.295-4.762-10.193-3.458-16.662l13.748-67.625L918.227,114.063z"/>
	<path fill-rule="evenodd" clip-rule="evenodd" d="M379.644,24.45l-12.416,61.097l-22.139,9.706l13.72-67.597
		c1.333-6.499,5.159-12.396,10.233-16.663L379.644,24.45z"/>
	<path fill-rule="evenodd" clip-rule="evenodd" d="M518.825,24.45L506.41,85.547l-22.139,9.706l13.748-67.597
		c1.304-6.499,5.131-12.396,10.233-16.663L518.825,24.45z"/>
	<path fill-rule="evenodd" clip-rule="evenodd" d="M658.035,24.45l-12.416,61.097l-22.138,9.706l13.72-67.597
		c1.332-6.499,5.158-12.396,10.232-16.663L658.035,24.45z"/>
	<path fill-rule="evenodd" clip-rule="evenodd" d="M936.425,24.45l-12.416,61.097l-22.139,9.706l13.721-67.597
		c1.332-6.499,5.158-12.396,10.232-16.663L936.425,24.45z"/>
	<path fill-rule="evenodd" clip-rule="evenodd" d="M1075.607,24.45l-12.416,61.097l-22.139,9.706l13.748-67.597
		c1.304-6.499,5.131-12.396,10.233-16.663L1075.607,24.45z"/>
	<path fill-rule="evenodd" clip-rule="evenodd" d="M312.945,104.358l-13.719,67.625c-1.333,6.469-5.159,12.367-10.233,16.662
		l-10.602-13.457l12.416-61.125L312.945,104.358z"/>
	<path fill-rule="evenodd" clip-rule="evenodd" d="M452.155,104.358l-13.748,67.625c-1.304,6.469-5.131,12.367-10.233,16.662
		L417.6,175.188l12.416-61.125L452.155,104.358z"/>
	<path fill-rule="evenodd" clip-rule="evenodd" d="M591.335,104.358l-13.72,67.625c-1.332,6.469-5.159,12.367-10.233,16.662
		l-10.602-13.457l12.416-61.125L591.335,104.358z"/>
	<path fill-rule="evenodd" clip-rule="evenodd" d="M730.545,104.358l-13.748,67.625c-1.304,6.469-5.131,12.367-10.233,16.662
		l-10.573-13.457l12.416-61.125L730.545,104.358z"/>
	<path fill-rule="evenodd" clip-rule="evenodd" d="M869.726,104.358l-13.72,67.625c-1.332,6.469-5.159,12.367-10.232,16.662
		l-10.603-13.457l12.416-61.125L869.726,104.358z"/>
	<path fill-rule="evenodd" clip-rule="evenodd" d="M1008.936,104.358l-13.748,67.625c-1.305,6.469-5.131,12.367-10.233,16.662
		l-10.573-13.457l12.416-61.125L1008.936,104.358z"/>
	<path fill-rule="evenodd" clip-rule="evenodd" d="M1148.117,104.358l-13.72,67.625c-1.332,6.469-5.159,12.367-10.233,16.662
		l-10.602-13.457l12.416-61.125L1148.117,104.358z"/>
	<path fill-rule="evenodd" clip-rule="evenodd" d="M34.555,104.358l-13.72,67.625c-1.333,6.469-5.159,12.367-10.233,16.662
		L0,175.188l12.416-61.125L34.555,104.358z"/>
	<path fill-rule="evenodd" clip-rule="evenodd" d="M46.687,10.994c3.345,4.266,4.762,10.164,3.458,16.663L36.397,95.253
		l-18.198-9.706L30.614,24.45L46.687,10.994z"/>
	<path fill-rule="evenodd" clip-rule="evenodd" d="M185.868,10.994c3.345,4.266,4.791,10.164,3.458,16.663l-13.72,67.597
		l-18.198-9.706l12.416-61.097L185.868,10.994z"/>
	<path fill-rule="evenodd" clip-rule="evenodd" d="M325.077,10.994c3.345,4.266,4.762,10.164,3.458,16.663l-13.748,67.597
		l-18.198-9.706l12.416-61.097L325.077,10.994z"/>
	<path fill-rule="evenodd" clip-rule="evenodd" d="M464.258,10.994c3.374,4.266,4.791,10.164,3.458,16.663l-13.72,67.597
		l-18.198-9.706l12.416-61.097L464.258,10.994z"/>
	<path fill-rule="evenodd" clip-rule="evenodd" d="M881.859,10.994c3.345,4.266,4.762,10.164,3.458,16.663l-13.748,67.597
		l-18.198-9.706l12.415-61.097L881.859,10.994z"/>
	<path fill-rule="evenodd" clip-rule="evenodd" d="M1021.04,10.994c3.373,4.266,4.791,10.164,3.458,16.663l-13.72,67.597
		l-18.198-9.706l12.416-61.097L1021.04,10.994z"/>
	<path fill-rule="evenodd" clip-rule="evenodd" d="M1160.25,10.994c3.345,4.266,4.762,10.164,3.458,16.663l-13.748,67.597
		l-18.198-9.706l12.415-61.097L1160.25,10.994z"/>
	<path fill-rule="evenodd" clip-rule="evenodd" d="M144.936,192.71c-5.103,4.268-11.452,6.9-17.858,6.9H72.822
		c-6.406,0-11.679-2.633-15.024-6.9l16.044-13.455h60.491L144.936,192.71z"/>
	<path fill-rule="evenodd" clip-rule="evenodd" d="M284.117,192.71c-5.074,4.268-11.452,6.9-17.858,6.9h-54.227
		c-6.406,0-11.707-2.633-15.052-6.9l16.044-13.455h60.52L284.117,192.71z"/>
	<path fill-rule="evenodd" clip-rule="evenodd" d="M562.507,192.71c-5.074,4.268-11.452,6.9-17.858,6.9h-54.227
		c-6.406,0-11.707-2.633-15.052-6.9l16.044-13.455h60.52L562.507,192.71z"/>
	<path fill-rule="evenodd" clip-rule="evenodd" d="M701.716,192.71c-5.102,4.268-11.451,6.9-17.857,6.9h-54.256
		c-6.406,0-11.679-2.633-15.023-6.9l16.044-13.455h60.491L701.716,192.71z"/>
	<path fill-rule="evenodd" clip-rule="evenodd" d="M980.107,192.71c-5.102,4.268-11.451,6.9-17.857,6.9h-54.256
		c-6.406,0-11.679-2.633-15.023-6.9l16.044-13.455h60.491L980.107,192.71z"/>
	<path fill-rule="evenodd" clip-rule="evenodd" d="M1119.289,192.71c-5.074,4.268-11.452,6.9-17.858,6.9h-54.227
		c-6.406,0-11.707-2.633-15.052-6.9l16.044-13.455h60.52L1119.289,192.71z"/>
	<path fill-rule="evenodd" clip-rule="evenodd" d="M113.386,0h54.227c6.406,0,11.707,2.663,15.052,6.929l-16.044,13.456h-60.52
		L95.528,6.929C100.602,2.663,106.979,0,113.386,0L113.386,0z"/>
	<path fill-rule="evenodd" clip-rule="evenodd" d="M252.567,0h54.255c6.406,0,11.679,2.663,15.023,6.929l-16.044,13.456h-60.491
		L234.709,6.929C239.811,2.663,246.161,0,252.567,0L252.567,0z"/>
	<path fill-rule="evenodd" clip-rule="evenodd" d="M530.958,0h54.255c6.406,0,11.679,2.663,15.024,6.929l-16.045,13.456h-60.491
		L513.1,6.929C518.202,2.663,524.551,0,530.958,0L530.958,0z"/>
	<path fill-rule="evenodd" clip-rule="evenodd" d="M670.167,0h54.227c6.406,0,11.707,2.663,15.052,6.929l-16.044,13.456h-60.52
		L652.309,6.929C657.383,2.663,663.761,0,670.167,0L670.167,0z"/>
	<path fill-rule="evenodd" clip-rule="evenodd" d="M809.348,0h54.255c6.406,0,11.679,2.663,15.053,6.929l-16.073,13.456h-60.491
		L791.49,6.929C796.592,2.663,802.942,0,809.348,0L809.348,0z"/>
	<path fill-rule="evenodd" clip-rule="evenodd" d="M948.558,0h54.227c6.406,0,11.707,2.663,15.052,6.929l-16.044,13.456h-60.52
		L930.7,6.929C935.774,2.663,942.152,0,948.558,0L948.558,0z"/>
	<path fill-rule="evenodd" clip-rule="evenodd" d="M1087.739,0h54.255c6.406,0,11.679,2.663,15.053,6.929l-16.073,13.456h-60.491
		L1069.88,6.929C1074.983,2.663,1081.333,0,1087.739,0L1087.739,0z"/>
	<polygon fill-rule="evenodd" clip-rule="evenodd" points="92.041,89.642 152.532,89.642 171.638,99.805 148.394,109.997 
		87.902,109.997 68.797,99.805 	"/>
	<polygon fill-rule="evenodd" clip-rule="evenodd" points="231.25,89.642 291.742,89.642 310.847,99.805 287.604,109.997 
		227.112,109.997 208.006,99.805 	"/>
	<polygon fill-rule="evenodd" clip-rule="evenodd" points="370.432,89.642 430.923,89.642 450.028,99.805 426.785,109.997 
		366.293,109.997 347.188,99.805 	"/>
	<polygon fill-rule="evenodd" clip-rule="evenodd" points="509.641,89.642 570.132,89.642 589.238,99.805 565.994,109.997 
		505.502,109.997 486.397,99.805 	"/>
	<polygon fill-rule="evenodd" clip-rule="evenodd" points="648.822,89.642 709.314,89.642 728.448,99.805 705.175,109.997 
		644.684,109.997 625.579,99.805 	"/>
	<polygon fill-rule="evenodd" clip-rule="evenodd" points="927.212,89.642 987.705,89.642 1006.838,99.805 983.566,109.997 
		923.075,109.997 903.968,99.805 	"/>
	<polygon fill-rule="evenodd" clip-rule="evenodd" points="1066.422,89.642 1126.914,89.642 1146.019,99.805 1122.775,109.997 
		1062.284,109.997 1043.178,99.805 	"/>
</g>
</svg>
