<?xml version="1.0" encoding="utf-8"?>
<!-- Generator: Adobe Illustrator 16.0.0, SVG Export Plug-In . SVG Version: 6.00 Build 0)  -->
<!DOCTYPE svg PUBLIC "-//W3C//DTD SVG 1.1//EN" "http://www.w3.org/Graphics/SVG/1.1/DTD/svg11.dtd">
<svg version="1.1" id="Layer_1" xmlns="http://www.w3.org/2000/svg" xmlns:xlink="http://www.w3.org/1999/xlink" x="0px" y="0px"
	 width="48.841px" height="10.078px" viewBox="0 0 48.841 10.078" enable-background="new 0 0 48.841 10.078" xml:space="preserve">
<g>
	<path fill="#5B5B5A" d="M11.31,0h28.205c3.09,1.717,6.207,3.377,9.326,5.066c-3.742,1.66-7.512,3.322-11.254,5.012H9.354L0,5.01
		C3.742,3.35,7.512,1.66,11.253,0H11.31z M39.402,0.457H11.367L1.049,5.066l8.419,4.553h28.034L47.82,5.01L39.402,0.457z"/>
	<path fill-rule="evenodd" clip-rule="evenodd" fill="#5B5B5A" d="M24.435,6.871c0.992,0,1.785-0.83,1.785-1.832
		s-0.793-1.805-1.785-1.805c-0.993,0-1.814,0.803-1.814,1.805S23.442,6.871,24.435,6.871L24.435,6.871z"/>
</g>
</svg>
