<?xml version="1.0" encoding="utf-8"?>
<!-- Generator: Adobe Illustrator 16.0.0, SVG Export Plug-In . SVG Version: 6.00 Build 0)  -->
<!DOCTYPE svg PUBLIC "-//W3C//DTD SVG 1.1//EN" "http://www.w3.org/Graphics/SVG/1.1/DTD/svg11.dtd">
<svg version="1.1" id="Layer_1" xmlns="http://www.w3.org/2000/svg" xmlns:xlink="http://www.w3.org/1999/xlink" x="0px" y="0px"
	 width="15.577px" height="40.254px" viewBox="0 0 15.577 40.254" enable-background="new 0 0 15.577 40.254" xml:space="preserve">
<g>
	<path fill="#5B5B5A" d="M13.663,0.172c0.822,1.06,1.418,2.348,1.701,3.722c0.283,1.346,0.283,2.806,0,4.352L8.872,40.254L0,35.502
		c1.899-9.648,3.798-19.354,5.839-28.974C8.362,4.352,10.97,2.176,13.521,0L13.663,0.172z M14.938,4.008
		c-0.283-1.259-0.766-2.376-1.475-3.35L6.265,6.786L0.51,35.244l8.051,4.294l6.35-31.378C15.194,6.671,15.194,5.268,14.938,4.008
		L14.938,4.008z"/>
	<path fill-rule="evenodd" clip-rule="evenodd" fill="#5B5B5A" d="M7.796,21.931c0.992,0,1.814-0.831,1.814-1.833
		s-0.822-1.804-1.814-1.804c-0.993,0-1.786,0.802-1.786,1.804S6.803,21.931,7.796,21.931L7.796,21.931z"/>
</g>
</svg>
