<?xml version="1.0" encoding="utf-8"?>
<!-- Generator: Adobe Illustrator 16.0.0, SVG Export Plug-In . SVG Version: 6.00 Build 0)  -->
<!DOCTYPE svg PUBLIC "-//W3C//DTD SVG 1.1//EN" "http://www.w3.org/Graphics/SVG/1.1/DTD/svg11.dtd">
<svg version="1.1" id="Layer_1" xmlns="http://www.w3.org/2000/svg" xmlns:xlink="http://www.w3.org/1999/xlink" x="0px" y="0px"
	 width="41.131px" height="9.992px" viewBox="0 0 41.131 9.992" enable-background="new 0 0 41.131 9.992" xml:space="preserve">
<g>
	<path fill="#5B5B5A" d="M8.589,0h25.257c1.475,0,2.834,0.315,4.025,0.859c1.248,0.602,2.297,1.432,3.117,2.491l0.143,0.171
		c-2.551,2.147-5.158,4.295-7.682,6.471c-9.412-0.086-18.907,0-28.318,0C3.402,7.816,1.729,5.64,0,3.464l0.17-0.143
		c1.248-1.031,2.636-1.89,4.082-2.462C5.641,0.315,7.115,0,8.589,0L8.589,0z M33.846,0.458H8.589c-1.417,0-2.834,0.287-4.167,0.831
		C3.062,1.804,1.786,2.577,0.624,3.521l4.734,6.013h27.922l7.229-6.07c-0.766-0.916-1.73-1.661-2.836-2.176
		C36.566,0.745,35.264,0.458,33.846,0.458L33.846,0.458z"/>
	<path fill-rule="evenodd" clip-rule="evenodd" fill="#5B5B5A" d="M20.58,6.814c0.992,0,1.785-0.831,1.785-1.804
		c0-1.002-0.793-1.833-1.785-1.833c-0.993,0-1.814,0.83-1.814,1.833C18.766,5.984,19.587,6.814,20.58,6.814L20.58,6.814z"/>
</g>
</svg>
