<?xml version="1.0" encoding="utf-8"?>
<!-- Generator: Adobe Illustrator 16.0.0, SVG Export Plug-In . SVG Version: 6.00 Build 0)  -->
<!DOCTYPE svg PUBLIC "-//W3C//DTD SVG 1.1//EN" "http://www.w3.org/Graphics/SVG/1.1/DTD/svg11.dtd">
<svg version="1.1" id="Layer_1" xmlns="http://www.w3.org/2000/svg" xmlns:xlink="http://www.w3.org/1999/xlink" x="0px" y="0px"
	 width="123.123px" height="177.651px" viewBox="0 0 123.123 177.651" enable-background="new 0 0 123.123 177.651"
	 xml:space="preserve">
<g>
	<path fill-rule="evenodd" clip-rule="evenodd" d="M34.554,13.456L22.139,74.553L0,84.259l13.72-67.597
		C15.052,10.164,18.879,4.266,23.953,0L34.554,13.456z"/>
	<path fill-rule="evenodd" clip-rule="evenodd" d="M107.064,93.364l-13.748,67.625c-1.304,6.47-5.131,12.368-10.233,16.662
		L72.51,164.195l12.416-61.126L107.064,93.364z"/>
	<path fill-rule="evenodd" clip-rule="evenodd" d="M119.168,0c3.373,4.266,4.791,10.164,3.458,16.663l-13.72,67.597l-18.199-9.706
		l12.416-61.097L119.168,0z"/>
	<polygon fill-rule="evenodd" clip-rule="evenodd" points="25.342,78.647 85.833,78.647 104.938,88.811 81.694,99.003 
		21.203,99.003 2.098,88.811 	"/>
</g>
</svg>
