<?xml version="1.0" encoding="utf-8"?>
<!-- Generator: Adobe Illustrator 16.0.0, SVG Export Plug-In . SVG Version: 6.00 Build 0)  -->
<!DOCTYPE svg PUBLIC "-//W3C//DTD SVG 1.1//EN" "http://www.w3.org/Graphics/SVG/1.1/DTD/svg11.dtd">
<svg version="1.1" id="Layer_1" xmlns="http://www.w3.org/2000/svg" xmlns:xlink="http://www.w3.org/1999/xlink" x="0px" y="0px"
	 width="41.131px" height="9.992px" viewBox="0 0 41.131 9.992" enable-background="new 0 0 41.131 9.992" xml:space="preserve">
<g>
	<path fill="#5B5B5A" d="M40.961,6.67c-1.191,1.031-2.551,1.891-4.025,2.463c-1.418,0.543-2.891,0.859-4.365,0.859H7.285
		c-1.474,0-2.834-0.316-4.025-0.859c-1.247-0.602-2.296-1.432-3.118-2.49L0,6.471C2.551,4.295,5.131,2.146,7.682,0H36
		c1.701,2.176,3.43,4.352,5.131,6.527L40.961,6.67z M36.766,8.703c1.361-0.543,2.637-1.316,3.742-2.232l-4.707-6.014H7.852
		l-7.2,6.07c0.737,0.916,1.701,1.66,2.807,2.176c1.134,0.545,2.409,0.83,3.827,0.83H32.57C33.988,9.533,35.404,9.248,36.766,8.703
		L36.766,8.703z"/>
	<path fill-rule="evenodd" clip-rule="evenodd" fill="#5B5B5A" d="M20.58,6.814c0.992,0,1.785-0.832,1.785-1.834
		c0-0.973-0.793-1.803-1.785-1.803c-0.993,0-1.814,0.83-1.814,1.803C18.766,5.982,19.587,6.814,20.58,6.814L20.58,6.814z"/>
</g>
</svg>
