<?xml version="1.0" encoding="utf-8"?>
<!-- Generator: Adobe Illustrator 16.0.0, SVG Export Plug-In . SVG Version: 6.00 Build 0)  -->
<!DOCTYPE svg PUBLIC "-//W3C//DTD SVG 1.1//EN" "http://www.w3.org/Graphics/SVG/1.1/DTD/svg11.dtd">
<svg version="1.1" id="Layer_1" xmlns="http://www.w3.org/2000/svg" xmlns:xlink="http://www.w3.org/1999/xlink" x="0px" y="0px"
	 width="355.039px" height="65.622px" viewBox="0 0 355.039 65.622" enable-background="new 0 0 355.039 65.622"
	 xml:space="preserve">
<g>
	<path fill-rule="evenodd" clip-rule="evenodd" fill="#3B2A98" d="M117.553,37.219l-3.912,18.668h-7.625l6.265-32.64l8.504-3.35
		l-0.793,4.523c1.021-0.887,2.154-1.661,3.373-2.319c2.268-1.203,4.762-1.976,7.144-1.976c3.061,0,5.697,0.687,7.625,2.119
		c1.247,0.916,2.183,2.147,2.721,3.722c1.333-1.432,2.948-2.691,4.706-3.636c2.523-1.403,5.329-2.205,7.909-2.205
		c2.977,0,5.896,0.744,7.994,2.434c3.118,2.52,3.26,5.812,2.948,9.391c-0.085,0.973-0.227,1.918-0.369,2.719
		c-1.19,7.016-2.75,14.201-4.11,21.217h-7.965c1.134-5.842,3.487-17.008,4.195-22.133c0.227-1.717,0.539-3.865-1.021-5.067
		c-0.907-0.716-2.296-1.031-3.855-1.031c-1.417,0-3.005,0.401-4.507,1.174c-2.863,1.46-4.904,3.951-5.896,7.014l0,0
		c-0.34,1.031-0.567,1.748-0.822,2.777c-0.17,0.83-0.397,1.947-0.595,2.807c-0.822,3.979-1.701,8.332-2.948,14.459h-7.483
		l3.798-19.871l0,0c0.397-2.203,1.049-5.554-0.851-7.214c-0.85-0.744-2.126-1.145-3.628-1.145c-1.445,0-3.004,0.401-4.535,1.174
		C120.558,30.491,118.261,33.583,117.553,37.219L117.553,37.219z"/>
	<path fill-rule="evenodd" clip-rule="evenodd" fill="#3B2A98" d="M101.764,41.428c-0.34,1.717-0.822,3.379-1.474,4.924
		c-0.596,1.461-1.333,2.777-2.211,3.895c-1.644,2.146-3.827,3.721-6.35,4.781c-2.665,1.115-5.669,1.66-8.815,1.66
		c-3.402,0-7.059-0.715-9.723-2.549c-2.211-1.574-3.713-3.893-3.77-7.215l0,0c0-0.943,0.028-1.918,0.17-2.947
		c0.113-0.945,0.283-1.977,0.51-3.008l3.6-17.894l8.022-3.178c-1.275,7.186-2.438,14.458-3.855,21.587l0,0
		c-0.255,1.316-0.652,3.322-0.652,4.295h-0.028c0.028,1.461,0.737,2.348,1.786,2.863c1.276,0.602,3.09,0.773,5.046,0.773
		c1.587,0,3.118-0.287,4.45-0.803c1.276-0.486,2.381-1.23,3.175-2.146l0,0c0.482-0.545,0.907-1.289,1.248-2.148
		c0.425-1.059,0.765-2.262,0.992-3.463l0,0l3.628-17.78l8.079-3.149C104.343,26.941,102.728,34.413,101.764,41.428L101.764,41.428z"
		/>
	<path fill="#3B2A98" d="M6.803,0h51.364c1.871,0,3.572,0.773,4.791,2.033c1.219,1.231,1.984,2.949,1.984,4.838v51.877
		c0,1.891-0.766,3.607-1.984,4.84c-1.219,1.26-2.92,2.033-4.791,2.033H6.803c-1.871,0-3.572-0.773-4.791-2.033
		C0.765,62.356,0,60.639,0,58.749V6.871c0-1.89,0.765-3.607,2.013-4.838C3.231,0.773,4.932,0,6.803,0L6.803,0z M58.167,0.773H6.803
		c-1.672,0-3.175,0.687-4.28,1.804C1.446,3.665,0.765,5.182,0.765,6.871v51.877c0,1.662,0.681,3.207,1.758,4.295
		c1.105,1.117,2.608,1.805,4.28,1.805h51.364c1.644,0,3.175-0.688,4.252-1.805c1.105-1.088,1.786-2.633,1.786-4.295V6.871
		c0-1.689-0.68-3.207-1.786-4.294C61.342,1.46,59.811,0.773,58.167,0.773L58.167,0.773z"/>
	<path fill="#00A658" d="M175.465,0h51.363c1.871,0,3.572,0.773,4.791,2.033c1.247,1.231,2.013,2.949,2.013,4.838v51.877
		c0,1.891-0.766,3.607-2.013,4.84c-1.219,1.26-2.92,2.033-4.791,2.033h-51.363c-1.871,0-3.572-0.773-4.791-2.033
		c-1.247-1.232-2.012-2.949-2.012-4.84V6.871c0-1.89,0.765-3.607,2.012-4.838C171.893,0.773,173.594,0,175.465,0L175.465,0z
		 M226.828,0.773h-51.363c-1.645,0-3.175,0.687-4.252,1.804c-1.106,1.088-1.786,2.605-1.786,4.294v51.877
		c0,1.662,0.68,3.207,1.786,4.295c1.077,1.117,2.607,1.805,4.252,1.805h51.363c1.673,0,3.175-0.688,4.252-1.805
		c1.105-1.088,1.786-2.633,1.786-4.295V6.871c0-1.689-0.681-3.207-1.786-4.294C230.003,1.46,228.501,0.773,226.828,0.773
		L226.828,0.773z"/>
	<path fill-rule="evenodd" clip-rule="evenodd" fill="#00A658" d="M186.774,32.811l-2.579,12.797l-6.718,5.641
		c-1.417-1.805-2.012-4.266-1.474-6.986l2.325-11.451l2.324-11.453c0.567-2.72,2.155-5.182,4.309-6.986l4.422,5.641L186.774,32.811z
		"/>
	<path fill-rule="evenodd" clip-rule="evenodd" fill="#EBEBEB" d="M223.966,32.811l-2.325,11.451
		c-0.566,2.721-2.154,5.182-4.309,6.986l-4.422-5.641l2.608-12.797l0,0l2.579-12.798l6.746-5.641
		c1.39,1.804,1.984,4.266,1.446,6.986L223.966,32.811L223.966,32.811z"/>
	<path fill-rule="evenodd" clip-rule="evenodd" fill="#00A658" d="M215.319,52.938c-2.154,1.803-4.818,2.92-7.483,2.92h-22.733
		c-2.665,0-4.904-1.117-6.293-2.92l6.718-5.611h25.342L215.319,52.938z"/>
	<path fill-rule="evenodd" clip-rule="evenodd" fill="#00A658" d="M194.457,9.763h22.733c2.693,0,4.904,1.117,6.293,2.92
		l-6.718,5.611h-25.342l-4.422-5.611C189.128,10.879,191.792,9.763,194.457,9.763L194.457,9.763z"/>
	<path fill-rule="evenodd" clip-rule="evenodd" fill="#3B2A98" d="M18.113,32.811l-2.608,12.797l-6.718,5.641
		c-1.389-1.805-1.984-4.266-1.446-6.986l2.324-11.451l2.325-11.453c0.567-2.72,2.154-5.182,4.28-6.986l4.45,5.641L18.113,32.811z"/>
	<path fill-rule="evenodd" clip-rule="evenodd" fill="#3B2A98" d="M55.275,32.811l-2.324,11.451
		c-0.539,2.721-2.154,5.182-4.28,6.986l-4.422-5.641l2.579-12.797l0,0l2.608-12.798l6.718-5.641
		c1.417,1.804,2.013,4.266,1.474,6.986L55.275,32.811L55.275,32.811z"/>
	<path fill-rule="evenodd" clip-rule="evenodd" fill="#EBEBEB" d="M46.63,52.938c-2.126,1.803-4.791,2.92-7.455,2.92H16.441
		c-2.693,0-4.904-1.117-6.293-2.92l6.718-5.611h25.342L46.63,52.938z"/>
	<path fill-rule="evenodd" clip-rule="evenodd" fill="#3B2A98" d="M25.795,9.763h22.734c2.665,0,4.875,1.117,6.293,2.92
		l-6.718,5.611H22.762l-4.45-5.611C20.438,10.879,23.103,9.763,25.795,9.763L25.795,9.763z"/>
	<path fill-rule="evenodd" clip-rule="evenodd" fill="#00A658" d="M271.049,24.25c2.835,2.548,4.648,6.184,4.648,10.823
		c0,5.725-2.069,11.365-5.924,15.459c-3.458,3.666-8.362,6.07-14.4,6.07c-4.394,0-8.759-1.518-11.877-4.381
		c-2.835-2.547-4.648-6.184-4.648-10.793c0-5.813,2.069-11.424,5.867-15.46c3.486-3.693,8.419-6.07,14.457-6.07
		C263.565,19.898,267.931,21.387,271.049,24.25L271.049,24.25z M249.193,46.838c1.39,1.318,3.572,2.148,6.775,2.148
		c3.373,0,6.208-1.432,8.221-3.666c2.183-2.434,3.458-5.811,3.458-9.391c0-2.633-0.822-4.781-2.381-6.241
		c-1.531-1.432-3.771-2.262-6.69-2.262c-3.231,0-6.065,1.518-8.106,3.808c-2.239,2.492-3.572,5.898-3.572,9.333
		C246.897,43.032,247.55,45.321,249.193,46.838L249.193,46.838z"/>
	<path fill-rule="evenodd" clip-rule="evenodd" fill="#00A658" d="M320.91,6.041l-9.666,49.817h-7.625l0.51-2.662
		c-0.51,0.514-1.077,0.973-1.672,1.373c-1.871,1.26-4.139,2.033-7.144,2.033c-4.45,0-7.994-1.689-10.517-4.236
		c-2.807-2.893-4.28-6.93-4.28-10.938c0-5.813,2.013-11.51,5.981-15.575c3.543-3.579,8.561-5.898,15.08-5.898
		c1.53,0,3.175,0.172,4.705,0.43c1.361,0.229,2.637,0.515,3.742,0.83l2.494-13.084l8.617-3.378L320.91,6.041z M306.511,39.223
		l2.069-10.421c-0.822-0.315-1.871-0.601-2.977-0.801c-1.56-0.315-3.231-0.487-4.621-0.487c-3.798,0-6.746,1.403-8.815,3.607
		c-2.324,2.434-3.543,5.897-3.543,9.59c0,2.664,0.765,4.695,2.041,6.041c1.332,1.49,3.316,2.234,5.499,2.234
		c1.53,0,2.891-0.373,4.054-1.002c1.445-0.744,2.664-1.805,3.543-2.92l0.028-0.029c0.596-0.688,1.162-1.604,1.615-2.576
		C305.915,41.399,306.283,40.284,306.511,39.223L306.511,39.223z"/>
	<path fill-rule="evenodd" clip-rule="evenodd" fill="#00A658" d="M351.609,46.153l-1.219,6.813l-0.453,0.23
		c-1.56,0.857-3.175,1.717-5.329,2.348c-2.126,0.629-4.763,1.059-8.334,1.059c-4.678,0-8.845-1.574-11.821-4.295
		c-2.919-2.662-4.677-6.412-4.677-10.879c0-6.07,2.126-11.51,5.783-15.403c3.571-3.808,8.589-6.127,14.484-6.127
		c1.956,0,4.054,0.343,6.01,1.031c1.843,0.658,3.543,1.632,4.961,2.892l0,0c1.247,1.174,2.268,2.52,2.976,4.008
		c0.681,1.403,1.049,2.949,1.049,4.58c0,2.234-0.793,4.668-3.004,6.414c-1.701,1.289-4.167,2.176-7.739,2.176h-16.81v0.172
		c0,2.348,0.851,4.408,2.495,5.84c1.587,1.346,3.883,2.176,6.888,2.176c2.126,0,4.252-0.428,6.265-1.059
		c2.608-0.801,4.989-2.004,6.889-3.092l1.983-1.203L351.609,46.153z M332.617,29.432c-1.445,1.06-2.664,2.52-3.486,4.409h14.995
		c1.162,0,2.069-0.172,2.608-0.572c0.425-0.285,0.651-0.744,0.651-1.402c0-0.544-0.227-1.117-0.595-1.661
		c-0.454-0.63-1.134-1.203-1.899-1.661c-0.737-0.401-1.56-0.716-2.381-0.917c-1.021-0.229-2.069-0.315-3.005-0.315
		C336.954,27.313,334.545,28,332.617,29.432L332.617,29.432z"/>
</g>
</svg>
